<?xml version="1.0" encoding="utf-8"?>
<!-- Generator: Adobe Illustrator 24.1.1, SVG Export Plug-In . SVG Version: 6.00 Build 0)  -->
<svg version="1.1" id="Layer_1" xmlns="http://www.w3.org/2000/svg" xmlns:xlink="http://www.w3.org/1999/xlink" x="0px" y="0px"
	 viewBox="0 0 512 512" style="enable-background:new 0 0 512 512;" xml:space="preserve">
<style type="text/css">
	.st0{fill-rule:evenodd;clip-rule:evenodd;}
</style>
<g>
	<path class="st0" d="M0,80c0-26.5,21.5-48,48-48h416c26.5,0,48,21.5,48,48v352c0,26.5-21.5,48-48,48H48c-26.5,0-48-21.5-48-48V80z
		 M48,64c-8.8,0-16,7.2-16,16v352c0,8.8,7.2,16,16,16h416c8.8,0,16-7.2,16-16V80c0-8.8-7.2-16-16-16H48z"/>
	<path class="st0" d="M160,480V32h32v448H160z M320,480V32h32v448H320z"/>
</g>
</svg>
