<?xml version="1.0" encoding="utf-8"?>
<!-- Generator: Adobe Illustrator 21.0.0, SVG Export Plug-In . SVG Version: 6.00 Build 0)  -->
<svg version="1.1" id="Layer_1" xmlns="http://www.w3.org/2000/svg" xmlns:xlink="http://www.w3.org/1999/xlink" x="0px" y="0px"
	 viewBox="0 0 512 512" style="enable-background:new 0 0 512 512;" xml:space="preserve">
<g>
	<path d="M495,119.4H17.1C7.7,119.4,0,127,0,136.5s7.6,17.1,17.1,17.1H495c9.4,0,17.1-7.6,17.1-17.1
		C512.1,127.1,504.5,119.4,495,119.4z"/>
	<path d="M409.6,238.9H102.4c-9.4,0-17.1,7.6-17.1,17.1c0,9.4,7.7,17.1,17.1,17.1h307.2c9.4,0,17.1-7.6,17.1-17.1
		C426.7,246.6,419.1,238.9,409.6,238.9z"/>
	<path d="M307.2,358.3H204.8c-9.4,0-17.1,7.6-17.1,17.1s7.7,17.1,17.1,17.1h102.4c9.4,0,17.1-7.6,17.1-17.1
		C324.3,366,316.7,358.3,307.2,358.3z"/>
</g>
</svg>
